<svg width="235" height="46" viewBox="0 0 235 46" fill="none" xmlns="http://www.w3.org/2000/svg">
<path d="M92.3241 1.31877L94.8497 2.27553C96.5335 2.91337 96.3562 5.41919 94.6282 5.78367C80.2276 8.88177 45.932 16.9459 50.0085 22.641C54.3065 28.6094 108.143 32.3453 128.436 33.5754C131.228 33.7577 132.424 37.3114 130.342 39.2249L126.088 43.0519C124.404 44.5554 122.233 45.4211 119.973 45.4211C107.345 45.4666 63.0355 45.2388 32.1518 40.3183C-7.23936 34.031 -4.5808 24.4634 9.28807 17.8571C31.753 7.10492 75.5751 1.86549 87.0069 0.635362C88.7793 0.453121 90.6403 0.680923 92.3241 1.31877Z" fill="#FF5656"/>
<path d="M76.0184 16.8269H82.3315L75.7808 26.0249V38.4813C75.7808 38.685 75.6564 38.7868 75.4075 38.7868H70.9612C70.7123 38.7868 70.5878 38.685 70.5878 38.4813V26.0249C69.2981 24.1921 67.386 21.5221 64.8518 18.0148C62.3401 14.485 60.9485 12.5277 60.677 12.143C60.5865 12.0299 60.5752 11.9167 60.6431 11.8036C60.711 11.6905 60.8354 11.6339 61.0164 11.6339H66.3791C66.5375 11.6339 66.6507 11.6678 66.7185 11.7357L73.1673 20.798L76.0184 16.8269ZM96.6504 19.7119C96.6504 19.1009 96.5146 18.5805 96.2431 18.1506C95.9715 17.698 95.6321 17.37 95.2248 17.1663C94.8402 16.9627 94.4442 16.8043 94.0369 16.6911C93.6522 16.578 93.3241 16.5214 93.0526 16.5214L92.6453 16.4875H88.5724V22.6987H92.6453C92.7585 22.6987 92.9055 22.6987 93.0865 22.6987C93.2676 22.6761 93.5844 22.6082 94.0369 22.4951C94.4894 22.3819 94.8854 22.2348 95.2248 22.0538C95.5869 21.8728 95.915 21.5787 96.2091 21.1714C96.5033 20.7641 96.6504 20.2776 96.6504 19.7119ZM101.843 19.4064C101.843 22.2575 100.588 24.1921 98.0759 25.2104C99.343 25.6403 100.316 26.3304 100.995 27.2808C101.696 28.2311 102.081 29.0683 102.149 29.7924L102.217 30.8785C102.217 32.0778 102.024 33.1526 101.64 34.1029C101.278 35.0307 100.769 35.766 100.112 36.3091C99.4788 36.8522 98.8226 37.3047 98.1438 37.6667C97.465 38.0288 96.7182 38.289 95.9037 38.4474C95.1117 38.5832 94.4781 38.6737 94.003 38.7189C93.5504 38.7642 93.0979 38.7868 92.6453 38.7868H88.6063V33.8314H92.6453C93.7767 33.8314 94.7836 33.6051 95.6661 33.1526C96.5712 32.7 97.0237 31.8968 97.0237 30.7428C97.0237 30.1544 96.8653 29.6453 96.5485 29.2154C96.2544 28.7855 95.8923 28.48 95.4624 28.299C95.0325 28.118 94.6026 27.9822 94.1727 27.8917C93.7654 27.8012 93.4146 27.7559 93.1205 27.7559H92.6453H88.5724H83.4133V11.9394C83.4133 11.7357 83.5378 11.6339 83.7867 11.6339H92.6453C92.7811 11.6339 92.9508 11.6339 93.1544 11.6339C93.3807 11.6339 93.8106 11.6792 94.4442 11.7697C95.0778 11.8602 95.6887 11.9959 96.277 12.177C96.8653 12.3354 97.5102 12.6069 98.2117 12.9915C98.9131 13.3762 99.5127 13.8401 100.011 14.3831C100.531 14.9036 100.961 15.605 101.3 16.4875C101.662 17.3473 101.843 18.3203 101.843 19.4064ZM116.066 33.7296V38.7868H103.541C103.293 38.7868 103.168 38.685 103.168 38.4813V11.9394C103.168 11.7357 103.293 11.6339 103.541 11.6339H116.066V16.5554H108.361V22.6987H119.019C119.268 22.6987 119.392 22.8005 119.392 23.0042V27.3147C119.392 27.5183 119.268 27.6202 119.019 27.6202H108.361V33.7296H116.066ZM138.737 38.3456C138.782 38.4587 138.771 38.5605 138.703 38.651C138.658 38.7415 138.567 38.7868 138.431 38.7868H133.578C133.397 38.7868 133.284 38.7189 133.238 38.5832L128.283 27.8238H125.364V38.4813C125.364 38.685 125.24 38.7868 124.991 38.7868H120.544C120.318 38.7868 120.205 38.685 120.205 38.4813V22.8345H125.364H129.335C132.005 22.8345 133.34 21.7936 133.34 19.7119C133.34 19.0104 133.182 18.4334 132.865 17.9809C132.548 17.5057 132.13 17.1776 131.609 16.9966C131.111 16.8156 130.681 16.7024 130.319 16.6572C129.98 16.5893 129.652 16.5554 129.335 16.5554H125.364H120.205V11.9394C120.205 11.7357 120.318 11.6339 120.544 11.6339H129.335C129.697 11.6339 130.025 11.6452 130.319 11.6678C130.636 11.6678 131.123 11.7244 131.779 11.8375C132.458 11.9507 133.057 12.1091 133.578 12.3127C134.121 12.4937 134.709 12.7879 135.343 13.1952C135.999 13.5799 136.542 14.055 136.972 14.6207C137.402 15.1638 137.764 15.8765 138.058 16.759C138.352 17.6415 138.499 18.6258 138.499 19.7119C138.499 23.3775 136.836 25.81 133.51 27.0092C134.121 28.3895 135.015 30.3468 136.191 32.881C137.391 35.4153 138.239 37.2368 138.737 38.3456ZM167.933 16.6232H173.228L164.776 38.5832C164.731 38.7189 164.618 38.7868 164.437 38.7868C164.279 38.7868 164.177 38.7189 164.131 38.5832L156.461 18.4561L148.79 38.5832C148.745 38.7189 148.632 38.7868 148.451 38.7868C148.292 38.7868 148.19 38.7189 148.145 38.5832L139.728 16.6232H145.023L148.451 25.9571L153.847 11.8375C153.893 11.7018 153.994 11.6339 154.153 11.6339H158.769C158.927 11.6339 159.04 11.7018 159.108 11.8375L164.471 25.9571L167.933 16.6232ZM196.21 38.3795C196.256 38.47 196.244 38.5605 196.176 38.651C196.108 38.7415 196.018 38.7868 195.905 38.7868H191.221C191.063 38.7868 190.961 38.7189 190.915 38.5832L185.553 23.4454L180.258 38.5832C180.213 38.7189 180.1 38.7868 179.919 38.7868H175.269C175.11 38.7868 174.997 38.7529 174.929 38.685C174.884 38.5945 174.884 38.4926 174.929 38.3795L185.213 11.8375C185.259 11.7018 185.372 11.6339 185.553 11.6339C185.734 11.6339 185.847 11.7018 185.892 11.8375L196.21 38.3795ZM215.834 38.3456C215.879 38.4587 215.868 38.5605 215.8 38.651C215.754 38.7415 215.664 38.7868 215.528 38.7868H210.675C210.494 38.7868 210.38 38.7189 210.335 38.5832L205.38 27.8238H202.461V38.4813C202.461 38.685 202.336 38.7868 202.087 38.7868H197.641C197.415 38.7868 197.302 38.685 197.302 38.4813V22.8345H202.461H206.432C209.102 22.8345 210.437 21.7936 210.437 19.7119C210.437 19.0104 210.279 18.4334 209.962 17.9809C209.645 17.5057 209.226 17.1776 208.706 16.9966C208.208 16.8156 207.778 16.7024 207.416 16.6572C207.077 16.5893 206.749 16.5554 206.432 16.5554H202.461H197.302V11.9394C197.302 11.7357 197.415 11.6339 197.641 11.6339H206.432C206.794 11.6339 207.122 11.6452 207.416 11.6678C207.733 11.6678 208.219 11.7244 208.876 11.8375C209.554 11.9507 210.154 12.1091 210.675 12.3127C211.218 12.4937 211.806 12.7879 212.439 13.1952C213.096 13.5799 213.639 14.055 214.069 14.6207C214.499 15.1638 214.861 15.8765 215.155 16.759C215.449 17.6415 215.596 18.6258 215.596 19.7119C215.596 23.3775 213.933 25.81 210.607 27.0092C211.218 28.3895 212.111 30.3468 213.288 32.881C214.487 35.4153 215.336 37.2368 215.834 38.3456ZM229.722 33.7296V38.7868H217.198C216.949 38.7868 216.824 38.685 216.824 38.4813V11.9394C216.824 11.7357 216.949 11.6339 217.198 11.6339H229.722V16.5554H222.017V22.6987H232.675C232.924 22.6987 233.048 22.8005 233.048 23.0042V27.3147C233.048 27.5183 232.924 27.6202 232.675 27.6202H222.017V33.7296H229.722Z" fill="white"/>
</svg>
